<svg width="56" height="56" viewBox="0 0 56 56" fill="none" xmlns="http://www.w3.org/2000/svg">
<g id="Group 54">
<path id="Vector" d="M54.5181 28.2826C54.5181 43.0636 42.5369 55.0417 27.759 55.0417C12.9812 55.0417 1 43.0636 1 28.2826V27.759C1 12.9781 12.9812 1 27.759 1C42.54 1 54.5181 12.9812 54.5181 27.759V28.2826Z" fill="black" stroke="black" stroke-miterlimit="10"/>
<path id="Vector_2" d="M34.7078 18.6609C34.7078 22.4986 31.5939 25.6156 27.7562 25.6156C23.9155 25.6156 20.8047 22.4986 20.8047 18.6609V17.8725C20.8047 14.0348 23.9155 10.9209 27.7562 10.9209C31.5939 10.9209 34.7078 14.0348 34.7078 17.8725V18.6609Z" fill="white" stroke="white" stroke-miterlimit="10"/>
<path id="Vector_3" d="M41.401 41.4836C41.401 41.4836 42.9225 41.4836 27.7566 41.4836C22.8224 41.4836 14.1152 41.8963 14.1152 41.4836C14.1152 33.3 20.2229 26.6626 27.7566 26.6626C35.2964 26.6626 41.401 33.3 41.401 41.4836Z" fill="white" stroke="white" stroke-miterlimit="10"/>
</g>
</svg>
